<svg xmlns="http://www.w3.org/2000/svg" viewBox="0 0 373.24 373.24"><defs><style>.cls-1{fill:#0df7f0;}</style></defs><title>hero-logoAsset 2</title><g id="Layer_2" data-name="Layer 2"><g id="Layer_1-2" data-name="Layer 1"><path class="cls-1" d="M233.75,125.19H139.21c-7,.16-14,4.57-14,12.72v2.26c0,.39,0,.89,0,2V145c0,1,0,1.87,0,2.68v.45c0,2,.08,3.62.18,5.65.71,17,5.6,41.72,24.86,63.19.5.55,1,1.08,1.55,1.63a135.22,135.22,0,0,1-21.2,1.94,5.5,5.5,0,0,0-5.42,5.5v16.68a5.48,5.48,0,0,0,5.47,5.49h0c19.47-.16,39.31-3.41,56-9.22,16.74,5.81,36.52,9,56,9.2h.05a5.43,5.43,0,0,0,5.46-5.47V226.07a5.49,5.49,0,0,0-5.41-5.5,135.54,135.54,0,0,1-21.2-1.94c.55-.53,1-1.08,1.55-1.63,19.26-21.47,24.14-46.22,24.85-63.19.11-2.08.16-3.71.19-5.63v-.47c0-.81,0-1.68,0-2.68v-7.12C248.2,129.55,240.92,125.19,233.75,125.19Zm-100.4,15.48v-2.76c0-4.2,5.47-4.52,6-4.52h94.38c2.16,0,6.25,1,6.25,4.52v2.65l0,.14v1.41c0,.66,0,1.5,0,2.55H133.35v-2.55C133.33,141.48,133.33,140.88,133.35,140.67Zm53.34,89.68a101.41,101.41,0,0,1-16.32-7.65,115.15,115.15,0,0,0,16.32-6.15A116.08,116.08,0,0,0,203,222.7,101,101,0,0,1,186.69,230.35Zm0-22.94a54.87,54.87,0,0,1-14.27-10.22c-13.69-14.3-17.29-32.93-18.13-44.35h64.77c-.84,11.42-4.44,30-18.13,44.35A54.5,54.5,0,0,1,186.69,207.41Zm-53.15-53.94c0-.21,0-.42,0-.63H146.1c.84,12.53,4.75,33.65,20.41,50a57.52,57.52,0,0,0,11,8.75,120.3,120.3,0,0,1-15.9,5,46.53,46.53,0,0,1-5.3-5C138.69,191.85,134.19,169.1,133.54,153.47ZM133.33,240v-11.3a145.92,145.92,0,0,0,26.38-3.28,84.31,84.31,0,0,0,14.95,8.72A176.52,176.52,0,0,1,133.33,240ZM240,228.69V240a175.25,175.25,0,0,1-41.33-5.83,85.9,85.9,0,0,0,15-8.72A148.38,148.38,0,0,0,240,228.69Zm-.21-75.22c-.66,15.63-5.15,38.41-22.78,58.07a44.15,44.15,0,0,1-5.31,5,121.27,121.27,0,0,1-15.87-5,55.77,55.77,0,0,0,11-8.75c15.67-16.35,19.61-37.47,20.45-50h12.56C239.85,153.05,239.82,153.26,239.82,153.47Z"/><path class="cls-1" d="M69.74,137.4l-20.88-9.32L51,123.22l20.88,9.32Z"/><path class="cls-1" d="M76.19,123,63.56,101.44l3-4.25,24.55,5-3.24,4.5-21.29-5L67.87,100l11.48,18.6Zm-1-7-2.47-3.44,6.9-9.6,4.06,1.24Z"/><path class="cls-1" d="M98.3,95.06,83.81,77.37,87.2,74.6l20.86,4.19-1.64,1.34L96,67.4l4-3.31,14.49,17.69-3.39,2.77L90.27,80.36,91.91,79l10.43,12.73Z"/><path class="cls-1" d="M138.87,68.39l3.35-24.79,5-1.46,16.25,19.08-5.34,1.55-13.7-17,2-.59-2.41,21.73Zm3.55-6.13.16-4.24,11.36-3.31,2.44,3.48Z"/><path class="cls-1" d="M184.33,60.16a13.88,13.88,0,0,1-5-.73,11.36,11.36,0,0,1-6.72-6,12.52,12.52,0,0,1-.26-9.47,11.08,11.08,0,0,1,2.53-3.83,11.62,11.62,0,0,1,3.91-2.57,15.13,15.13,0,0,1,10.5-.15,10.81,10.81,0,0,1,4.18,2.83l-3.28,3.22a8.56,8.56,0,0,0-2.79-1.9,8.65,8.65,0,0,0-6.24.08,6.74,6.74,0,0,0-3.8,3.94,8,8,0,0,0-.45,3,7.62,7.62,0,0,0,.62,2.91,6.73,6.73,0,0,0,1.59,2.29,7.53,7.53,0,0,0,2.4,1.47,7.88,7.88,0,0,0,3,.47,9,9,0,0,0,3-.61,8.78,8.78,0,0,0,2.84-1.81L193.49,57a13.43,13.43,0,0,1-4.28,2.29A16.67,16.67,0,0,1,184.33,60.16Zm4.31-3.71-.24-8.59,4.83-.13.26,9.27Z"/><path class="cls-1" d="M215.88,63.52a10.4,10.4,0,0,1-6.79-4.39c-1.36-2.18-1.66-4.91-.88-8.19l2.93-12.43,5.18,1.22L213.42,52q-.75,3.15.23,4.87a5.54,5.54,0,0,0,7.28,1.72q1.63-1.11,2.37-4.26l2.91-12.3,5,1.19-2.93,12.43c-.77,3.29-2.26,5.6-4.45,6.94A10.32,10.32,0,0,1,215.88,63.52Z"/><path class="cls-1" d="M244.64,74.15a18.81,18.81,0,0,1-4.34-3.08,12.3,12.3,0,0,1-2.74-3.56L241,64.79a12.45,12.45,0,0,0,2.29,3.12,13,13,0,0,0,3.32,2.47,7.9,7.9,0,0,0,2.39.87,3.14,3.14,0,0,0,1.66-.12,1.89,1.89,0,0,0,1-.9,1.72,1.72,0,0,0,0-1.62A5.76,5.76,0,0,0,250.38,67c-.6-.57-1.27-1.16-2-1.78s-1.46-1.27-2.16-2A11.8,11.8,0,0,1,244.42,61a5.64,5.64,0,0,1-.79-2.58,5.85,5.85,0,0,1,.75-3A6.42,6.42,0,0,1,247,52.71a7.08,7.08,0,0,1,4-.83,13,13,0,0,1,5.21,1.61,17.47,17.47,0,0,1,3.54,2.42,12.77,12.77,0,0,1,2.58,3L259,61.71a13.46,13.46,0,0,0-2.21-2.63,12,12,0,0,0-2.58-1.83,7.45,7.45,0,0,0-2.39-.85,2.92,2.92,0,0,0-1.66.18,2.21,2.21,0,0,0-1,1,1.76,1.76,0,0,0,0,1.64,5.25,5.25,0,0,0,1.28,1.64c.6.54,1.28,1.12,2,1.75a29.06,29.06,0,0,1,2.17,2,12.83,12.83,0,0,1,1.76,2.21,5.37,5.37,0,0,1,.12,5.53,6.23,6.23,0,0,1-2.57,2.64,7.39,7.39,0,0,1-4,.81A13,13,0,0,1,244.64,74.15Z"/><path class="cls-1" d="M266.22,87.69l11.92-14.21-5.6-4.7,2.77-3.3,15.26,12.8-2.77,3.3-5.6-4.7L270.27,91.09Z"/><path class="cls-1" d="M283.11,104.06l17.66-14.52,3.38,4.11-17.66,14.52Z"/><path class="cls-1" d="M294.54,118.88l20.29-10.55,2,3.89-8.38,19.56-1-1.89,14.61-7.59,2.41,4.64-20.29,10.54-2-3.88L310.58,114l1,1.88L297,123.52Z"/><path class="cls-1" d="M62.89,270.73l12.14-8L78.48,268a6.28,6.28,0,0,1,1.25,3.69,3.24,3.24,0,0,1-1.57,2.64,3.5,3.5,0,0,1-2,.63,3.36,3.36,0,0,1-1.84-.58,4.93,4.93,0,0,1-1.48-1.5l.61,0a6.08,6.08,0,0,1,1,2.23,3.49,3.49,0,0,1-.2,2,3.6,3.6,0,0,1-1.44,1.61,3.34,3.34,0,0,1-3.14.44,6.78,6.78,0,0,1-3.1-2.87Zm1.9.58,2.82,4.29a5.46,5.46,0,0,0,2.15,2.09,2.3,2.3,0,0,0,2.3-.3,2.27,2.27,0,0,0,1.17-2,5.43,5.43,0,0,0-1.06-2.81l-2.91-4.42,1.06-.7,2.64,4a4.64,4.64,0,0,0,2,1.9,2.25,2.25,0,0,0,2.18-.28,2.22,2.22,0,0,0,1.12-1.89,4.72,4.72,0,0,0-.94-2.63l-2.54-3.87Z"/><path class="cls-1" d="M76.67,289.8,87.38,280l3.68,4a7.66,7.66,0,0,1,1.7,2.74,4.59,4.59,0,0,1,.13,2.66A5.34,5.34,0,0,1,89,293a4.54,4.54,0,0,1-2.64-.36,7.61,7.61,0,0,1-2.58-1.94l-3.1-3.38,1,0-3.92,3.59Zm4.86-2.37.07-1,3.07,3.35a5,5,0,0,0,2.94,1.8,3.28,3.28,0,0,0,2.74-1A3.34,3.34,0,0,0,91.58,288a5,5,0,0,0-1.53-3.08L87,281.51h1Zm1.84,9.69,1.36-6.32L85.85,292l-1.35,6.33Z"/><path class="cls-1" d="M91,304.48l14.26-7.22,1.18.94-3.86,15.51-1.27-1L105,298.23l.49.38L92.2,305.48Zm4.47-1.4,1.13-.69,6.61,5.26-.42,1.26Z"/><path class="cls-1" d="M111.2,319.39l7.07-12.69,1.11.61L122,323.22l-.58-.32,6.15-11,1.32.74-7.07,12.69-1.11-.61-2.6-15.9.58.32-6.14,11Z"/><path class="cls-1" d="M133.48,330.55l4.76-13.73,5.59,1.94a8.64,8.64,0,0,1,3.56,2.21,6.72,6.72,0,0,1,1.73,3.31,7.78,7.78,0,0,1-2.47,7.14,6.85,6.85,0,0,1-3.42,1.53,8.71,8.71,0,0,1-4.16-.46Zm1.89-.76,4.06,1.41a7,7,0,0,0,3.41.39,5.58,5.58,0,0,0,2.78-1.26,6.07,6.07,0,0,0,1.76-2.65,6,6,0,0,0,.26-3.19,5.51,5.51,0,0,0-1.4-2.69,7.08,7.08,0,0,0-2.92-1.82l-4.06-1.4Z"/><path class="cls-1" d="M169.91,339.7,171,325.21l5.91.42a8.72,8.72,0,0,1,4,1.22,6.78,6.78,0,0,1,2.53,2.76,7.8,7.8,0,0,1-.55,7.54,6.72,6.72,0,0,1-2.9,2.35,8.7,8.7,0,0,1-4.14.63Zm1.63-1.22,4.28.32a7,7,0,0,0,3.4-.52,5.45,5.45,0,0,0,2.36-1.93,6.45,6.45,0,0,0,.45-6.16A5.6,5.6,0,0,0,180,328a7.08,7.08,0,0,0-3.28-1l-4.29-.31Z"/><path class="cls-1" d="M196.3,338.93l8.71-.76.11,1.32-10.23.89-1.27-14.47,9.93-.87.12,1.32-8.4.74Zm-.75-6.67,7.65-.67.12,1.31-7.65.66Z"/><path class="cls-1" d="M220.26,336.75a9.32,9.32,0,0,1-3.15.21,5.9,5.9,0,0,1-2.54-.8l.31-1.29a6,6,0,0,0,2.3.75,7.41,7.41,0,0,0,2.77-.14,5.93,5.93,0,0,0,2.09-.85,2.63,2.63,0,0,0,1-1.19,2.13,2.13,0,0,0,.1-1.34,1.92,1.92,0,0,0-.79-1.23,3.47,3.47,0,0,0-1.43-.5,14.71,14.71,0,0,0-1.82-.11c-.66,0-1.31,0-2,0a8.61,8.61,0,0,1-1.87-.26,3.7,3.7,0,0,1-1.52-.83,3.33,3.33,0,0,1-.91-1.72,3.7,3.7,0,0,1,.1-2.06,4,4,0,0,1,1.37-1.81,7.24,7.24,0,0,1,2.82-1.24,8.72,8.72,0,0,1,2.45-.23,7,7,0,0,1,2.23.44l-.22,1.31a6.91,6.91,0,0,0-2.14-.43,7.83,7.83,0,0,0-2,.19,5.59,5.59,0,0,0-2,.84,2.71,2.71,0,0,0-1,1.21,2.27,2.27,0,0,0-.08,1.39,1.92,1.92,0,0,0,.79,1.23,3.37,3.37,0,0,0,1.44.49c.56.06,1.17.09,1.82.1s1.31,0,2,0a9.27,9.27,0,0,1,1.86.27,3.75,3.75,0,0,1,1.51.81,3.09,3.09,0,0,1,.9,1.68,3.59,3.59,0,0,1-.11,2.05,4.07,4.07,0,0,1-1.39,1.82A7.25,7.25,0,0,1,220.26,336.75Z"/><path class="cls-1" d="M235.6,332.06l-5-13.65,1.44-.53,5,13.65Z"/><path class="cls-1" d="M254.06,324.07a8.4,8.4,0,0,1-3,.93,7.44,7.44,0,0,1-2.87-.25,7.08,7.08,0,0,1-2.5-1.35,7.85,7.85,0,0,1-2.72-5.23,6.89,6.89,0,0,1,.34-2.82,7.44,7.44,0,0,1,1.45-2.5,8.17,8.17,0,0,1,2.47-1.9,8.66,8.66,0,0,1,2.93-.95,6.1,6.1,0,0,1,2.82.32l-.39,1.3a5.54,5.54,0,0,0-2.4-.23,7.33,7.33,0,0,0-2.28.74,6.61,6.61,0,0,0-2,1.55,6,6,0,0,0-1.17,2,6.17,6.17,0,0,0-.28,2.3,6.43,6.43,0,0,0,2.21,4.24,5.75,5.75,0,0,0,2,1.1,5.89,5.89,0,0,0,2.33.22,6.9,6.9,0,0,0,2.39-.74,7.48,7.48,0,0,0,1.92-1.42,5.56,5.56,0,0,0,1.23-2.07l1.31.63a6.89,6.89,0,0,1-1.52,2.34A9,9,0,0,1,254.06,324.07Zm2.49-3.59-2.48-4.75,1.31-.68,2.56,4.92Z"/><path class="cls-1" d="M269.16,314.9l-8.78-11.58,1-.77,15.62,4-.53.4-7.63-10.06,1.21-.91,8.78,11.58-1,.76-15.6-4,.53-.4L270.39,314Z"/><path class="cls-1" d="M288.29,297l6-6.32,1,.91L288.19,299l-10.52-10,6.88-7.21,1,.92-5.82,6.1Zm-5-4.51,5.3-5.55.95.9-5.3,5.56Z"/><path class="cls-1" d="M302.46,282.75l-11.92-8.31,3.1-4.46a7.86,7.86,0,0,1,2.31-2.27,4.55,4.55,0,0,1,2.56-.7,4.89,4.89,0,0,1,2.62.95,4.69,4.69,0,0,1,1.76,2.1,4.63,4.63,0,0,1,.23,2.65,7.94,7.94,0,0,1-1.33,2.94l-2.62,3.77-.19-1,4.36,3Zm-3.38-4.23-1,.15,2.6-3.73a5,5,0,0,0,1.11-3.26,3.77,3.77,0,0,0-4.41-3.08,5,5,0,0,0-2.68,2.18l-2.6,3.73-.2-1Zm9.05-3.91-6.46.05.95-1.36,6.47-.07Z"/><path class="cls-1" d="M186.62,291.39a104.75,104.75,0,1,1,74.09-30.68A104.12,104.12,0,0,1,186.62,291.39Zm0-201.35a96.59,96.59,0,1,0,96.59,96.58A96.7,96.7,0,0,0,186.62,90Z"/><path class="cls-1" d="M186.62,373.24A186.66,186.66,0,0,1,114,14.67a186.61,186.61,0,0,1,204.6,303.91,185.93,185.93,0,0,1-132,54.66Zm0-365c-98.39,0-178.43,80-178.43,178.43s80,178.44,178.43,178.44S365.06,285,365.06,186.62,285,8.19,186.62,8.19Z"/></g></g></svg>