<svg xmlns="http://www.w3.org/2000/svg" viewBox="0 0 64.07 80.21"><defs><style>.cls-1{fill:#fff;}</style></defs><title>hero-iconAsset 4</title><g id="Layer_2" data-name="Layer 2"><g id="Layer_1-2" data-name="Layer 1"><path class="cls-1" d="M32,48c7.49,0,15-.05,22.49,0,6.56.06,9.39,3,9.59,9.4.26,8.06-3.4,13.95-10.34,17.42-14.12,7.06-28.57,7.2-42.79.3C3.61,71.57-.35,65.51,0,57c.26-5.9,3.06-8.92,9-9C16.65,47.91,24.31,48,32,48Z"/><path class="cls-1" d="M32,40A20,20,0,1,1,52,20,20,20,0,0,1,32,40Z"/></g></g></svg>