<svg xmlns="http://www.w3.org/2000/svg" viewBox="0 0 79.94 64.05"><defs><style>.cls-1{fill:#0df7f0;}</style></defs><title>hero-iconAsset 7</title><g id="Layer_2" data-name="Layer 2"><g id="Layer_1-2" data-name="Layer 1"><path class="cls-1" d="M.1,17.88c12.25,6.61,24,12.79,35.52,19.27,3.14,1.75,5.56,1.77,8.7,0C55.88,30.71,67.6,24.53,79.85,17.93c0,12.29.27,23.88-.11,35.45-.19,5.94-5.25,10.48-11.36,10.54q-28.45.27-56.92,0c-5.87,0-11-4.47-11.23-10.12C-.2,42.07.1,30.32.1,17.88Z"/><path class="cls-1" d="M0,11C2.18,3.06,5.88.06,13.29,0Q40,0,66.66,0C74.07.06,77.78,3.1,79.9,11l-19,10.27c-6,3.23-11.91,6.59-18,9.64-1.4.7-3.7,1.06-5,.4C25.29,24.73,12.78,17.88,0,11Z"/></g></g></svg>