<svg xmlns="http://www.w3.org/2000/svg" viewBox="0 0 77.7 78.59"><defs><style>.cls-1{fill:#0df7f0;}</style></defs><title>hero-iconAsset 5</title><g id="Layer_2" data-name="Layer 2"><g id="Layer_1-2" data-name="Layer 1"><path class="cls-1" d="M0,15.69C.64,8.06,3.15,4,8.19,1.8S19,.72,23.17,5.26C31.74,14.55,40.13,24,48.6,33.4c4.27,4.72,7.89,10,15,11.41,2.56.52,5.53,3.63,6.55,6.25,2.94,7.54,5.1,15.39,7.31,23.19.93,3.26-.86,5-4.08,4.1-7.8-2.21-15.77-4.16-23.15-7.4-3.13-1.38-5.07-5.65-7.34-8.77-1.86-2.57-2.94-5.86-5.18-8C27.25,44.19,16.36,34.63,6,24.57,3.07,21.75,1.33,17.73,0,15.69ZM51.66,45.87l-6.11-6.79-7.21,7.4,6.15,5.57Z"/><path class="cls-1" d="M16.11,39.56,36.88,58.73c-5.14,6-9.93,11.74-18.15,13.21-4.54.82-8.92,2.51-13.41,3.65-4.08,1-5.68-.58-4.57-4.68,1.69-6.24,2.86-12.74,5.56-18.53C8.46,47.77,12.56,44.07,16.11,39.56Z"/><path class="cls-1" d="M57.78,37.6l-18-20c5-5.11,9.34-10.35,14.45-14.71,5.31-4.53,13.17-3.45,18,1.61s5.55,12.79.86,18.1S63.23,32.31,57.78,37.6ZM53.51,11.67c3.82,3.95,7.34,7.57,10.95,11.28,3.2-2.69,7-5.66,5.33-10.51a10.67,10.67,0,0,0-5.88-5.86C59.07,4.92,56.05,8.6,53.51,11.67Z"/></g></g></svg>