<svg xmlns="http://www.w3.org/2000/svg" viewBox="0 0 76.13 76.2"><defs><style>.cls-1{fill:#1A3399;}</style></defs><title>hero-iconAsset 6</title><g id="Layer_2" data-name="Layer 2"><g id="Layer_1-2" data-name="Layer 1"><path class="cls-1" d="M76.08,38.23c0-5.16.11-10.32,0-15.48A22.83,22.83,0,0,0,53.47.14C43.16,0,32.83-.06,22.52.15A22.71,22.71,0,0,0,.16,22.46c-.21,10.48-.23,21,0,31.46A22.65,22.65,0,0,0,22.23,76c10.47.26,21,.23,31.45,0A22.78,22.78,0,0,0,76.05,53.71C76.21,48.55,76.08,43.39,76.08,38.23Zm-38,19.85a20,20,0,1,1,20-20A20,20,0,0,1,38.12,58.08ZM58.36,22c-2.52.1-4.19-1.36-4.18-3.91a3.69,3.69,0,0,1,4.16-3.95c2.32.08,3.45,1.69,3.78,3.91C61.81,20.31,60.67,21.92,58.36,22Z"/><path class="cls-1" d="M52.07,38A14,14,0,1,1,38,24.12,14.08,14.08,0,0,1,52.07,38Z"/></g></g></svg>