<svg xmlns="http://www.w3.org/2000/svg" viewBox="0 0 79.84 79.81"><defs><style>.cls-1{fill:#1a3399;}</style></defs><title>logo-iconAsset 2</title><g id="Layer_2" data-name="Layer 2"><g id="Layer_1-2" data-name="Layer 1"><path class="cls-1" d="M78.89,66.28A99.54,99.54,0,0,1,58,63.76a38.57,38.57,0,0,0,5.11-4.71c13-14.54,16.09-31.26,16.55-42.14.07-1.59.11-2.74.12-4.14,0-.56,0-1.16,0-1.84,0-2.09,0-3,0-3.26V6c0-4.07-3.74-6-7.19-6H7C3.61.07,0,2,0,6V7.66c0,.25,0,1.17,0,3.27,0,.68,0,1.28,0,1.84,0,1.39.05,2.55.12,4.14.46,10.87,3.51,27.6,16.56,42.14a38.57,38.57,0,0,0,5.11,4.71A99,99,0,0,1,1,66.28a1,1,0,0,0-1,1V78.84a1,1,0,0,0,1,1,121.8,121.8,0,0,0,39-6.56,122,122,0,0,0,38.94,6.56,1,1,0,0,0,1-1V67.24A1,1,0,0,0,78.89,66.28ZM28,49.15C17.22,37.92,14.82,23.23,14.46,14.52a1,1,0,0,1,.9-1H64.41a1,1,0,0,1,1,1C65,23.24,62.63,37.92,51.89,49.15a43,43,0,0,1-12,8.34A42.59,42.59,0,0,1,28,49.15Z"/></g></g></svg>